<svg viewBox="0 0 24 24"><path d="M11.5 20a2.9 2.9 0 0 1-2.125-.875A2.9 2.9 0 0 1 8.5 17h2q0 .425.288.713T11.5 18q.424 0 .713-.288A.96.96 0 0 0 12.5 17a.98.98 0 0 0-.288-.712A.97.97 0 0 0 11.5 16H2v-2h9.5q1.25 0 2.125.875T14.5 17t-.875 2.125A2.9 2.9 0 0 1 11.5 20M2 10V8h13.5q.65 0 1.075-.425T17 6.5t-.425-1.075T15.5 5t-1.075.425T14 6.5h-2q0-1.475 1.013-2.488T15.5 3t2.488 1.013T19 6.5t-1.012 2.488T15.5 10zm16.5 8v-2q.65 0 1.075-.425T20 14.5t-.425-1.075T18.5 13H2v-2h16.5q1.475 0 2.488 1.013T22 14.5t-1.012 2.488Q19.978 18.002 18.5 18"/></svg>