<svg viewBox="0 0 25 24" xmlns="http://www.w3.org/2000/svg"><path fill-rule="evenodd" clip-rule="evenodd" d="M12.2525 2.06445C13.2445 2.06445 14.1515 2.50745 14.9305 3.22745C16.3905 4.57645 17.7025 6.92445 18.7735 9.27045C19.8625 11.6555 20.7675 14.1845 21.3735 16.0195C22.0455 18.0525 21.1665 20.2175 19.3695 21.2955C18.4384 21.8565 17.3397 22.0724 16.2656 21.9053C15.1914 21.7382 14.2102 21.1988 13.4935 20.3815C13.0788 19.9067 12.6651 19.4311 12.2525 18.9545C11.8285 19.4445 11.4045 19.9315 11.0105 20.3815C10.2939 21.1986 9.31286 21.7378 8.23893 21.9049C7.165 22.072 6.06652 21.8562 5.13552 21.2955C3.33852 20.2175 2.45952 18.0525 3.13152 16.0195C3.73752 14.1845 4.64252 11.6555 5.73152 9.27045C6.80252 6.92445 8.11252 4.57645 9.57252 3.22745C10.3525 2.50745 11.2595 2.06445 12.2515 2.06445H12.2525ZM13.5685 17.4185C14.1985 16.6735 14.7385 16.0175 15.0525 15.5985C15.9925 14.3455 16.2335 12.7485 15.7665 11.4185C15.2805 10.0345 14.0395 8.99845 12.2525 8.99845C10.4655 8.99845 9.22452 10.0345 8.73852 11.4185C8.27152 12.7485 8.51152 14.3455 9.45252 15.5985C9.76552 16.0175 10.3055 16.6735 10.9365 17.4185C10.4565 17.9745 9.96452 18.5385 9.50652 19.0645C9.09859 19.529 8.54025 19.8352 7.92926 19.9296C7.31827 20.0239 6.69357 19.9003 6.16452 19.5805C5.13052 18.9605 4.66652 17.7485 5.03052 16.6465C5.62552 14.8465 6.50452 12.3925 7.55052 10.1015C8.61352 7.77145 9.78852 5.75145 10.9305 4.69645C11.4465 4.22045 11.8915 4.06445 12.2525 4.06445C12.6125 4.06445 13.0575 4.22045 13.5745 4.69645C14.7165 5.75145 15.8905 7.77245 16.9545 10.1015C18.0005 12.3925 18.8795 14.8465 19.4745 16.6465C19.8385 17.7485 19.3745 18.9595 18.3405 19.5805C17.8116 19.9001 17.1871 20.0235 16.5763 19.9292C15.9656 19.8348 15.4074 19.5287 14.9995 19.0645C14.5395 18.5395 14.0485 17.9745 13.5685 17.4185ZM12.2525 15.8765C11.8406 15.394 11.4404 14.9015 11.0525 14.3995C10.4925 13.6535 10.3895 12.7505 10.6255 12.0815C10.8425 11.4635 11.3515 10.9995 12.2525 10.9995C13.1525 10.9995 13.6625 11.4635 13.8795 12.0815C14.1145 12.7515 14.0115 13.6535 13.4525 14.3995C13.0649 14.9017 12.6648 15.3942 12.2525 15.8765Z"/></svg>