<svg viewBox="0 0 25 24" xmlns="http://www.w3.org/2000/svg"><path d="M8.25 16C8.25 16.7956 7.93393 17.5587 7.37132 18.1213C6.80871 18.6839 6.04565 19 5.25 19M16.25 16C16.25 16.7956 16.5661 17.5587 17.1287 18.1213C17.6913 18.6839 18.4544 19 19.25 19M12.25 16V20M3.25 7C3.25 6.46957 3.46071 5.96086 3.83579 5.58579C4.21086 5.21071 4.71957 5 5.25 5H19.25C19.7804 5 20.2891 5.21071 20.6642 5.58579C21.0393 5.96086 21.25 6.46957 21.25 7V11C21.25 11.5304 21.0393 12.0391 20.6642 12.4142C20.2891 12.7893 19.7804 13 19.25 13H5.25C4.71957 13 4.21086 12.7893 3.83579 12.4142C3.46071 12.0391 3.25 11.5304 3.25 11V7Z" stroke-width="2" stroke-linecap="round" stroke-linejoin="round"/><path d="M7.25 13V10C7.25 9.73478 7.35536 9.48043 7.54289 9.29289C7.73043 9.10536 7.98478 9 8.25 9H16.25C16.5152 9 16.7696 9.10536 16.9571 9.29289C17.1446 9.48043 17.25 9.73478 17.25 10V13" stroke-width="2" stroke-linecap="round" stroke-linejoin="round"/></svg>