<svg viewBox="0 0 25 24" xmlns="http://www.w3.org/2000/svg"><path d="M8.31 2C8.13 3.17 8.42 4.16 9.2 4.97C9.7 5.47 9.86 6.14 9.67 7H10.66C10.78 6.45 10.8 6 10.7 5.55C10.61 5.13 10.3 4.63 9.75 4.03C9.3 3.47 9.14 2.8 9.3 2H8.31ZM10.8 2C10.61 3.17 10.91 4.16 11.69 4.97C12.19 5.47 12.34 6.14 12.16 7H13.14C13.25 6.45 13.28 6 13.19 5.55C13.09 5.13 12.78 4.63 12.25 4.03C11.78 3.47 11.63 2.8 11.78 2H10.8ZM13.33 2C13.14 3.17 13.44 4.16 14.22 4.97C14.72 5.47 14.86 6.14 14.64 7H15.67C15.8 6.45 15.81 6 15.72 5.55C15.63 5.13 15.31 4.63 14.78 4.03C14.31 3.47 14.16 2.8 14.31 2H13.33ZM5.25 8C5.25 9.42 5.64 10.7 6.39 11.84C7.12111 12.9633 8.16356 13.8494 9.39 14.39L5.41 20.44C5.31 20.56 5.25 20.75 5.25 21C5.25 21.41 5.41 21.69 5.69 21.84C5.81 21.94 6 22 6.25 22C6.66 22 6.94 21.84 7.09 21.56L8.08 19.97H14.45C14.66 20.55 15.04 21.05 15.53 21.42C16.03 21.8 16.61 22 17.25 22C18.08 22 18.78 21.69 19.38 21.09C19.97 20.5 20.25 19.8 20.25 19C20.25 18.17 19.97 17.47 19.38 16.88C18.78 16.28 18.08 16 17.25 16C16.61 16 16.03 16.17 15.53 16.55C15.03 16.92 14.67 17.41 14.45 18H9.39L11.36 14.95C11.52 15 11.81 15 12.25 15C12.69 15 12.98 15 13.14 14.95L14.13 16.5C14.54 15.96 15.09 15.54 15.72 15.28L15.16 14.39C16.28 13.89 17.25 13 18.04 11.77C18.84 10.5 19.25 9.27 19.25 8H5.25ZM17.25 18C17.55 18 17.78 18.09 17.97 18.28C18.16 18.47 18.25 18.72 18.25 19C18.25 19.27 18.16 19.5 17.97 19.71C17.79 19.91 17.53 20 17.25 20C16.99 20 16.75 19.91 16.54 19.71C16.4473 19.6166 16.374 19.5057 16.3242 19.3839C16.2745 19.2621 16.2492 19.1316 16.25 19C16.25 18.7 16.34 18.47 16.54 18.28C16.75 18.09 16.98 18 17.25 18Z"/></svg>