<svg viewBox="0 0 24 24"><path d="M9 18a.97.97 0 0 0 .713-.288A.96.96 0 0 0 10 17a.97.97 0 0 0-.288-.712A.97.97 0 0 0 9 16a.97.97 0 0 0-.712.288A.97.97 0 0 0 8 17q0 .424.288.713A.96.96 0 0 0 9 18m3 0a.97.97 0 0 0 .713-.288A.96.96 0 0 0 13 17a.97.97 0 0 0-.288-.712A.97.97 0 0 0 12 16a.97.97 0 0 0-.712.288A.97.97 0 0 0 11 17q0 .424.288.713A.96.96 0 0 0 12 18m3 0a.97.97 0 0 0 .713-.288A.96.96 0 0 0 16 17a.97.97 0 0 0-.288-.712A.97.97 0 0 0 15 16a.97.97 0 0 0-.712.288A.97.97 0 0 0 14 17q0 .424.288.713A.96.96 0 0 0 15 18m-6-3a.97.97 0 0 0 .713-.288A.96.96 0 0 0 10 14a.97.97 0 0 0-.288-.712A.97.97 0 0 0 9 13a.97.97 0 0 0-.712.288A.97.97 0 0 0 8 14q0 .424.288.713A.96.96 0 0 0 9 15m3 0a.97.97 0 0 0 .713-.288A.96.96 0 0 0 13 14a.97.97 0 0 0-.288-.712A.97.97 0 0 0 12 13a.97.97 0 0 0-.712.288A.97.97 0 0 0 11 14q0 .424.288.713A.96.96 0 0 0 12 15m3 0a.97.97 0 0 0 .713-.288A.96.96 0 0 0 16 14a.97.97 0 0 0-.288-.712A.97.97 0 0 0 15 13a.97.97 0 0 0-.712.288A.97.97 0 0 0 14 14q0 .424.288.713A.96.96 0 0 0 15 15m-8-3h10v-1q0-2.075-1.463-3.537Q14.075 6.001 12 6 9.925 6 8.463 7.463 7 8.927 7 11zm1.55-1.5a3.52 3.52 0 0 1 1.163-2.137Q10.676 7.501 12 7.5q1.324 0 2.288.863A3.5 3.5 0 0 1 15.45 10.5zM4 22q-.824 0-1.412-.587A1.93 1.93 0 0 1 2 20V4q0-.824.588-1.412A1.93 1.93 0 0 1 4 2h16q.825 0 1.413.588T22 4v16q0 .825-.587 1.413A1.92 1.92 0 0 1 20 22zm0-2h16V4H4z"/></svg>