<svg width="25" height="24" viewBox="0 0 25 24" fill="none" xmlns="http://www.w3.org/2000/svg">
<path d="M9.25 18C9.53333 18 9.771 17.904 9.963 17.712C10.155 17.52 10.2507 17.2827 10.25 17C10.2493 16.7173 10.1533 16.48 9.962 16.288C9.77067 16.096 9.53333 16 9.25 16C8.96667 16 8.72933 16.096 8.538 16.288C8.34667 16.48 8.25067 16.7173 8.25 17C8.24933 17.2827 8.34533 17.5203 8.538 17.713C8.73067 17.9057 8.968 18.0013 9.25 18ZM12.25 18C12.5333 18 12.771 17.904 12.963 17.712C13.155 17.52 13.2507 17.2827 13.25 17C13.2493 16.7173 13.1533 16.48 12.962 16.288C12.7707 16.096 12.5333 16 12.25 16C11.9667 16 11.7293 16.096 11.538 16.288C11.3467 16.48 11.2507 16.7173 11.25 17C11.2493 17.2827 11.3453 17.5203 11.538 17.713C11.7307 17.9057 11.968 18.0013 12.25 18ZM15.25 18C15.5333 18 15.771 17.904 15.963 17.712C16.155 17.52 16.2507 17.2827 16.25 17C16.2493 16.7173 16.1533 16.48 15.962 16.288C15.7707 16.096 15.5333 16 15.25 16C14.9667 16 14.7293 16.096 14.538 16.288C14.3467 16.48 14.2507 16.7173 14.25 17C14.2493 17.2827 14.3453 17.5203 14.538 17.713C14.7307 17.9057 14.968 18.0013 15.25 18ZM9.25 15C9.53333 15 9.771 14.904 9.963 14.712C10.155 14.52 10.2507 14.2827 10.25 14C10.2493 13.7173 10.1533 13.48 9.962 13.288C9.77067 13.096 9.53333 13 9.25 13C8.96667 13 8.72933 13.096 8.538 13.288C8.34667 13.48 8.25067 13.7173 8.25 14C8.24933 14.2827 8.34533 14.5203 8.538 14.713C8.73067 14.9057 8.968 15.0013 9.25 15ZM12.25 15C12.5333 15 12.771 14.904 12.963 14.712C13.155 14.52 13.2507 14.2827 13.25 14C13.2493 13.7173 13.1533 13.48 12.962 13.288C12.7707 13.096 12.5333 13 12.25 13C11.9667 13 11.7293 13.096 11.538 13.288C11.3467 13.48 11.2507 13.7173 11.25 14C11.2493 14.2827 11.3453 14.5203 11.538 14.713C11.7307 14.9057 11.968 15.0013 12.25 15ZM15.25 15C15.5333 15 15.771 14.904 15.963 14.712C16.155 14.52 16.2507 14.2827 16.25 14C16.2493 13.7173 16.1533 13.48 15.962 13.288C15.7707 13.096 15.5333 13 15.25 13C14.9667 13 14.7293 13.096 14.538 13.288C14.3467 13.48 14.2507 13.7173 14.25 14C14.2493 14.2827 14.3453 14.5203 14.538 14.713C14.7307 14.9057 14.968 15.0013 15.25 15ZM7.25 12H17.25V11C17.25 9.61667 16.7623 8.43767 15.787 7.463C14.8117 6.48833 13.6327 6.00067 12.25 6C10.8673 5.99933 9.68833 6.487 8.713 7.463C7.73767 8.439 7.25 9.618 7.25 11V12ZM8.8 10.5C8.93333 9.65 9.321 8.93767 9.963 8.363C10.605 7.78833 11.3673 7.50067 12.25 7.5C13.1327 7.49933 13.8953 7.787 14.538 8.363C15.1807 8.939 15.568 9.65133 15.7 10.5H8.8ZM4.25 22C3.7 22 3.22933 21.8043 2.838 21.413C2.44667 21.0217 2.25067 20.5507 2.25 20V4C2.25 3.45 2.446 2.97933 2.838 2.588C3.23 2.19667 3.70067 2.00067 4.25 2H20.25C20.8 2 21.271 2.196 21.663 2.588C22.055 2.98 22.2507 3.45067 22.25 4V20C22.25 20.55 22.0543 21.021 21.663 21.413C21.2717 21.805 20.8007 22.0007 20.25 22H4.25ZM4.25 20H20.25V4H4.25V20Z" fill="#151515"/>
</svg>
