<svg width="25" height="24" viewBox="0 0 25 24" fill="none" xmlns="http://www.w3.org/2000/svg">
<path d="M19.5 2.75H5C4.46957 2.75 3.96086 2.96071 3.58579 3.33579C3.21071 3.71086 3 4.21957 3 4.75L3.0005 21.25H19.5005C20.0309 21.25 20.5396 21.0393 20.9147 20.6642C21.2898 20.2891 21.5005 19.7804 21.5005 19.25V4.75C21.5005 4.21957 21.2898 3.71086 20.9147 3.33579C20.5396 2.96071 20.0304 2.75 19.5 2.75ZM16.692 17.2035C16.5298 17.2031 16.3693 17.1708 16.2196 17.1083C16.0699 17.0459 15.934 16.9546 15.8196 16.8397C15.7052 16.7247 15.6146 16.5883 15.5529 16.4383C15.4912 16.2884 15.4596 16.1277 15.46 15.9655C15.4593 15.638 15.5887 15.3237 15.8198 15.0917C16.0508 14.8596 16.3645 14.7288 16.692 14.728C17.0203 14.728 17.3351 14.8584 17.5672 15.0905C17.7993 15.3227 17.9298 15.6375 17.9298 15.9657C17.9298 16.294 17.7993 16.6088 17.5672 16.841C17.3351 17.0731 17.0203 17.2035 16.692 17.2035Z" stroke="#083B84" stroke-linecap="round" stroke-linejoin="round"/>
<path d="M11.6948 12.2026C12.3491 12.2157 12.9721 12.4848 13.4302 12.9521C13.8882 13.4194 14.1448 14.0477 14.1448 14.7021C14.1448 15.3565 13.8882 15.9848 13.4302 16.4521C12.9721 16.9194 12.3491 17.1885 11.6948 17.2016H7.57031V7.20312H11.6953C12.3496 7.21621 12.9726 7.4853 13.4307 7.95262C13.8887 8.41995 14.1453 9.04824 14.1453 9.70263C14.1453 10.357 13.8887 10.9853 13.4307 11.4526C12.9726 11.9199 12.3496 12.189 11.6953 12.2021L11.6948 12.2026ZM11.6948 12.2026H7.57031" stroke="#083B84" stroke-linecap="round" stroke-linejoin="round"/>
</svg>
