<svg viewBox="0 0 25 24" xmlns="http://www.w3.org/2000/svg"><path d="M21.25 3.6V20.4C21.25 20.5591 21.1868 20.7117 21.0743 20.8243C20.9617 20.9368 20.8091 21 20.65 21H3.85C3.69087 21 3.53826 20.9368 3.42574 20.8243C3.31321 20.7117 3.25 20.5591 3.25 20.4V3.6C3.25 3.44087 3.31321 3.28826 3.42574 3.17574C3.53826 3.06321 3.69087 3 3.85 3H20.65C20.8091 3 20.9617 3.06321 21.0743 3.17574C21.1868 3.28826 21.25 3.44087 21.25 3.6Z" stroke-width="1.5" stroke-linecap="round" stroke-linejoin="round"/><path d="M8.25174 6C8.25174 6 5.75174 9 8.25174 12C10.7517 15 8.25174 18 8.25174 18M12.2517 6C12.2517 6 9.75174 9 12.2517 12C14.7517 15 12.2517 18 12.2517 18M16.2517 6C16.2517 6 13.7517 9 16.2517 12C18.7517 15 16.2517 18 16.2517 18" stroke-width="1.5" stroke-linecap="round" stroke-linejoin="round"/></svg>