<svg viewBox="0 0 25 24" xmlns="http://www.w3.org/2000/svg"><path d="M16.25 11C17.91 11 19.24 9.66 19.24 8C19.24 6.34 17.91 5 16.25 5C14.59 5 13.25 6.34 13.25 8C13.25 9.66 14.59 11 16.25 11ZM8.25 11C9.91 11 11.24 9.66 11.24 8C11.24 6.34 9.91 5 8.25 5C6.59 5 5.25 6.34 5.25 8C5.25 9.66 6.59 11 8.25 11ZM8.25 13C5.92 13 1.25 14.17 1.25 16.5V19H15.25V16.5C15.25 14.17 10.58 13 8.25 13ZM16.25 13C15.96 13 15.63 13.02 15.28 13.05C16.44 13.89 17.25 15.02 17.25 16.5V19H23.25V16.5C23.25 14.17 18.58 13 16.25 13Z"/></svg>