<svg viewBox="0 0 25 24" xmlns="http://www.w3.org/2000/svg"><path d="M12.2469 13.4008L7.34687 18.3008C7.16354 18.4841 6.93021 18.5758 6.64687 18.5758C6.36354 18.5758 6.13021 18.4841 5.94687 18.3008C5.76354 18.1174 5.67188 17.8841 5.67188 17.6008C5.67188 17.3174 5.76354 17.0841 5.94687 16.9008L10.8469 12.0008L5.94687 7.10078C5.76354 6.91745 5.67188 6.68411 5.67188 6.40078C5.67188 6.11745 5.76354 5.88411 5.94687 5.70078C6.13021 5.51745 6.36354 5.42578 6.64687 5.42578C6.93021 5.42578 7.16354 5.51745 7.34687 5.70078L12.2469 10.6008L17.1469 5.70078C17.3302 5.51745 17.5635 5.42578 17.8469 5.42578C18.1302 5.42578 18.3635 5.51745 18.5469 5.70078C18.7302 5.88411 18.8219 6.11745 18.8219 6.40078C18.8219 6.68411 18.7302 6.91745 18.5469 7.10078L13.6469 12.0008L18.5469 16.9008C18.7302 17.0841 18.8219 17.3174 18.8219 17.6008C18.8219 17.8841 18.7302 18.1174 18.5469 18.3008C18.3635 18.4841 18.1302 18.5758 17.8469 18.5758C17.5635 18.5758 17.3302 18.4841 17.1469 18.3008L12.2469 13.4008Z"/></svg>