<svg viewBox="0 0 25 24" xmlns="http://www.w3.org/2000/svg"><path d="M10.85 16.95C11.0667 17.1333 11.296 17.2627 11.538 17.338C11.78 17.4133 12.0173 17.4507 12.25 17.45C12.7333 17.45 13.171 17.296 13.563 16.988C13.955 16.68 14.184 16.234 14.25 15.65C14.3333 14.8667 14.0917 14.2877 13.525 13.913C12.9583 13.5383 12.5333 13.0507 12.25 12.45C12.1667 12.6833 12.125 12.9 12.125 13.1C12.125 13.3 12.15 13.5167 12.2 13.75C12.25 14.0333 12.3083 14.3 12.375 14.55C12.4417 14.8 12.45 15.0667 12.4 15.35C12.3167 15.65 12.1333 15.9583 11.85 16.275C11.5667 16.5917 11.2333 16.8167 10.85 16.95ZM2.25 22V2H22.25V22H2.25ZM4.25 20H6.25V18H8.5C8.11667 17.5167 7.81233 17.0083 7.587 16.475C7.36167 15.9417 7.24933 15.4333 7.25 14.95C7.25 14.1833 7.33333 13.4627 7.5 12.788C7.66667 12.1133 7.971 11.459 8.413 10.825C8.855 10.191 9.46733 9.562 10.25 8.938C11.0327 8.314 12.0327 7.668 13.25 7C13.0667 7.73333 13.146 8.51267 13.488 9.338C13.83 10.1633 14.4673 10.9173 15.4 11.6C15.95 12 16.396 12.471 16.738 13.013C17.08 13.555 17.2507 14.2173 17.25 15C17.25 15.5833 17.1583 16.121 16.975 16.613C16.7917 17.105 16.55 17.5673 16.25 18H18.25V20H20.25V4H4.25V20Z"/></svg>