<svg width="25" height="24" viewBox="0 0 25 24" fill="none" xmlns="http://www.w3.org/2000/svg">
<path d="M5.25 11L6.75 6.5H17.75L19.25 11M17.75 16C17.3522 16 16.9706 15.842 16.6893 15.5607C16.408 15.2794 16.25 14.8978 16.25 14.5C16.25 14.1022 16.408 13.7206 16.6893 13.4393C16.9706 13.158 17.3522 13 17.75 13C18.1478 13 18.5294 13.158 18.8107 13.4393C19.092 13.7206 19.25 14.1022 19.25 14.5C19.25 14.8978 19.092 15.2794 18.8107 15.5607C18.5294 15.842 18.1478 16 17.75 16ZM6.75 16C6.35218 16 5.97064 15.842 5.68934 15.5607C5.40804 15.2794 5.25 14.8978 5.25 14.5C5.25 14.1022 5.40804 13.7206 5.68934 13.4393C5.97064 13.158 6.35218 13 6.75 13C7.14782 13 7.52936 13.158 7.81066 13.4393C8.09196 13.7206 8.25 14.1022 8.25 14.5C8.25 14.8978 8.09196 15.2794 7.81066 15.5607C7.52936 15.842 7.14782 16 6.75 16ZM19.17 6C18.97 5.42 18.41 5 17.75 5H6.75C6.09 5 5.53 5.42 5.33 6L3.25 12V20C3.25 20.2652 3.35536 20.5196 3.54289 20.7071C3.73043 20.8946 3.98478 21 4.25 21H5.25C5.51522 21 5.76957 20.8946 5.95711 20.7071C6.14464 20.5196 6.25 20.2652 6.25 20V19H18.25V20C18.25 20.2652 18.3554 20.5196 18.5429 20.7071C18.7304 20.8946 18.9848 21 19.25 21H20.25C20.5152 21 20.7696 20.8946 20.9571 20.7071C21.1446 20.5196 21.25 20.2652 21.25 20V12L19.17 6Z" fill="#151515"/>
</svg>
