<svg width="25" height="24" viewBox="0 0 25 24" fill="none" xmlns="http://www.w3.org/2000/svg">
<path d="M8.25 8V5H10.25V8H8.25ZM8.25 17V12H10.25V17H8.25ZM6.25 22C5.7 22 5.22933 21.8043 4.838 21.413C4.44667 21.0217 4.25067 20.5507 4.25 20V4C4.25 3.45 4.446 2.97933 4.838 2.588C5.23 2.19667 5.70067 2.00067 6.25 2H18.25C18.8 2 19.271 2.196 19.663 2.588C20.055 2.98 20.2507 3.45067 20.25 4V20C20.25 20.55 20.0543 21.021 19.663 21.413C19.2717 21.805 18.8007 22.0007 18.25 22H6.25ZM6.25 20H18.25V11H6.25V20ZM6.25 9H18.25V4H6.25V9Z" fill="#151515"/>
</svg>
