<svg viewBox="0 0 25 24" xmlns="http://www.w3.org/2000/svg"><path d="M6.78107 1.8457C6.78107 1.8457 6 7.31316 6 8.09422C6 8.87529 7.7574 10.4374 7.7574 10.4374L7.56213 20.86C7.56213 21.7222 8.26196 22.1534 9.12426 22.1534C9.98656 22.1534 10.6864 21.7222 10.6864 20.86L10.4911 10.4374C10.4911 10.4374 12.2485 8.84248 12.2485 8.09422C12.2485 7.34596 11.4675 1.8457 11.4675 1.8457H10.6864V6.92263C10.6864 7.0262 10.6452 7.12554 10.572 7.19877C10.4988 7.27201 10.3994 7.31316 10.2959 7.31316C10.1923 7.31316 10.0929 7.27201 10.0197 7.19877C9.94647 7.12554 9.90533 7.0262 9.90533 6.92263C9.90533 6.84999 9.63664 1.8457 9.63664 1.8457H8.61188C8.61188 1.8457 8.3432 6.84999 8.3432 6.92263C8.3432 7.0262 8.30205 7.12554 8.22881 7.19877C8.15557 7.27201 8.05624 7.31316 7.95266 7.31316C7.84909 7.31316 7.74975 7.27201 7.67651 7.19877C7.60328 7.12554 7.56213 7.0262 7.56213 6.92263V1.8457H6.78107ZM15.1533 1.89491C14.6933 2.00504 14.5917 2.49789 14.5917 3.04073V20.8592C14.5917 21.7215 15.2916 22.1526 16.1538 22.1526C17.0161 22.1526 17.6918 21.7207 17.6918 20.8592C17.6918 16.8859 16.9107 14.7676 16.9107 12.7798C16.9107 11.8832 18.497 10.7288 18.497 6.55553C18.497 4.00301 16.2351 1.89413 15.3728 1.89413C15.2916 1.89413 15.2189 1.87851 15.1533 1.89413V1.89491Z"/></svg>