<svg width="25" height="24" viewBox="0 0 25 24" fill="none" xmlns="http://www.w3.org/2000/svg">
<path d="M10.25 16H14.25C14.5333 16 14.771 15.904 14.963 15.712C15.155 15.52 15.2507 15.2827 15.25 15V13H13.25V14H11.25V10H13.25V11H15.25V9C15.25 8.71667 15.154 8.47933 14.962 8.288C14.77 8.09667 14.5327 8.00067 14.25 8H10.25C9.96667 8 9.72933 8.096 9.538 8.288C9.34667 8.48 9.25067 8.71733 9.25 9V15C9.25 15.2833 9.346 15.521 9.538 15.713C9.73 15.905 9.96733 16.0007 10.25 16ZM12.25 22C10.8667 22 9.56667 21.7373 8.35 21.212C7.13334 20.6867 6.075 19.9743 5.175 19.075C4.275 18.1757 3.56267 17.1173 3.038 15.9C2.51333 14.6827 2.25067 13.3827 2.25 12C2.24933 10.6173 2.512 9.31733 3.038 8.1C3.564 6.88267 4.27633 5.82433 5.175 4.925C6.07367 4.02567 7.132 3.31333 8.35 2.788C9.568 2.26267 10.868 2 12.25 2C13.632 2 14.932 2.26267 16.15 2.788C17.368 3.31333 18.4263 4.02567 19.325 4.925C20.2237 5.82433 20.9363 6.88267 21.463 8.1C21.9897 9.31733 22.252 10.6173 22.25 12C22.248 13.3827 21.9853 14.6827 21.462 15.9C20.9387 17.1173 20.2263 18.1757 19.325 19.075C18.4237 19.9743 17.3653 20.687 16.15 21.213C14.9347 21.739 13.6347 22.0013 12.25 22Z" fill="#151515"/>
</svg>
