<svg width="25" height="24" viewBox="0 0 25 24" fill="none" xmlns="http://www.w3.org/2000/svg">
<path d="M8.25 15H10.25V12H13.75V14.5L17.25 11L13.75 7.5V10H9.25C8.96667 10 8.72933 10.096 8.538 10.288C8.34667 10.48 8.25067 10.7173 8.25 11V15ZM12.25 22C12 22 11.7543 21.95 11.513 21.85C11.2717 21.75 11.0507 21.6 10.85 21.4L2.85 13.4C2.65 13.2 2.5 12.979 2.4 12.737C2.3 12.495 2.25 12.2493 2.25 12C2.25 11.7507 2.3 11.505 2.4 11.263C2.5 11.021 2.65 10.8 2.85 10.6L10.85 2.6C11.05 2.4 11.271 2.25 11.513 2.15C11.755 2.05 12.0007 2 12.25 2C12.4993 2 12.7453 2.05 12.988 2.15C13.2307 2.25 13.4513 2.4 13.65 2.6L21.65 10.6C21.85 10.8 22 11.021 22.1 11.263C22.2 11.505 22.25 11.7507 22.25 12C22.25 12.2493 22.2 12.4953 22.1 12.738C22 12.9807 21.85 13.2013 21.65 13.4L13.65 21.4C13.45 21.6 13.229 21.75 12.987 21.85C12.745 21.95 12.4993 22 12.25 22Z" fill="#151515"/>
</svg>
