<svg viewBox="0 0 25 24" xmlns="http://www.w3.org/2000/svg"><path d="M18.2491 9.75001C17.5138 9.75082 16.7944 9.53482 16.1811 9.129L9.37815 15.932C9.89069 16.7072 10.0971 17.6452 9.95738 18.564C9.81765 19.4827 9.34173 20.3169 8.6219 20.9047C7.90206 21.4926 6.9896 21.7921 6.06143 21.7454C5.13326 21.6987 4.2555 21.3089 3.59835 20.6518C2.9412 19.9947 2.55148 19.1169 2.50475 18.1887C2.45801 17.2606 2.7576 16.3481 3.34542 15.6283C3.93323 14.9084 4.7674 14.4325 5.68619 14.2928C6.60497 14.153 7.54291 14.3595 8.31815 14.872L15.1201 8.06801C14.6596 7.37129 14.4448 6.54077 14.5098 5.70811C14.5748 4.87546 14.9159 4.08833 15.479 3.47155C16.0421 2.85476 16.7951 2.44362 17.6184 2.30331C18.4417 2.16299 19.2883 2.30154 20.0239 2.69699C20.7596 3.09243 21.3421 3.72213 21.6793 4.48625C22.0164 5.25037 22.0888 6.10517 21.885 6.91511C21.6812 7.72505 21.2129 8.44377 20.5542 8.95731C19.8956 9.47086 19.0843 9.74984 18.2491 9.75001Z"/></svg>