<svg viewBox="0 0 25 24" xmlns="http://www.w3.org/2000/svg"><path d="M6.55338 4.57421C8.68963 7.24947 5.32656 8.41555 3.37799 8.66418C3.25887 9.84331 6.73888 13.1123 6.84082 13.8463C6.94276 14.5802 3.10973 17.8628 6.24956 20.4929C12.7127 23.4696 13.4467 21.2473 13.9972 20.4929C15.1389 20.8803 16.1584 19.9628 15.6283 18.5968C20.1953 15.1307 20.8972 12.6075 21.1329 10.661C20.772 10.7091 19.1601 10.6129 17.8369 9.31373C18.8714 7.53341 17.4038 7.43718 16.8024 3.8525C16.0084 3.99685 12.8809 3.8525 11.4374 2C9.56082 4.86294 6.91441 3.03451 6.55338 4.57421Z"/><path d="M6.55338 4.57421C8.68963 7.24947 5.32656 8.41555 3.37799 8.66418C3.25887 9.84331 6.73888 13.1123 6.84082 13.8463C8.7483 13.6684 12.8878 13.1415 14.186 12.4563C15.4842 11.7712 19.3582 10.974 21.1329 10.661C20.772 10.7091 19.1601 10.6129 17.8369 9.31373C18.8714 7.53341 17.4038 7.43718 16.8024 3.8525C16.0084 3.99685 12.8809 3.8525 11.4374 2C9.56082 4.86294 6.91441 3.03451 6.55338 4.57421Z"/></svg>