<svg viewBox="0 0 24 24"><path d="M10.6 16.95q.325.275.688.388.364.113.712.112.725 0 1.313-.462T14 15.65q.125-1.174-.725-1.737A3.53 3.53 0 0 1 12 12.45q-.125.35-.125.65t.075.65q.075.425.175.8t.025.8q-.125.45-.55.925a2.4 2.4 0 0 1-1 .675M2 22V2h20v20zm2-2h2v-2h2.25a6.6 6.6 0 0 1-.913-1.525q-.338-.8-.337-1.525 0-1.15.25-2.162a5.9 5.9 0 0 1 .913-1.963Q8.826 9.874 10 8.938T13 7q-.275 1.1.238 2.338.514 1.238 1.912 2.262.825.6 1.338 1.413T17 15q0 .875-.275 1.613A6.3 6.3 0 0 1 16 18h2v2h2V4H4z"/></svg>