<svg width="25" height="24" viewBox="0 0 25 24" fill="none" xmlns="http://www.w3.org/2000/svg">
<path d="M12.2467 20C11.9815 19.9999 11.7272 19.8945 11.5397 19.707L5.53966 13.707C5.3575 13.5184 5.25671 13.2658 5.25899 13.0036C5.26127 12.7414 5.36644 12.4906 5.55185 12.3052C5.73725 12.1198 5.98807 12.0146 6.25026 12.0123C6.51246 12.01 6.76506 12.1108 6.95366 12.293L11.2467 16.586L11.2467 5C11.2467 4.73478 11.352 4.48043 11.5396 4.29289C11.7271 4.10536 11.9814 4 12.2467 4C12.5119 4 12.7662 4.10536 12.9538 4.29289C13.1413 4.48043 13.2467 4.73478 13.2467 5L13.2467 16.586L17.5397 12.293C17.7283 12.1108 17.9809 12.01 18.2431 12.0123C18.5053 12.0146 18.7561 12.1198 18.9415 12.3052C19.1269 12.4906 19.2321 12.7414 19.2343 13.0036C19.2366 13.2658 19.1358 13.5184 18.9537 13.707L12.9537 19.707C12.7662 19.8945 12.5119 19.9999 12.2467 20Z" fill="#151515"/>
</svg>
