<svg width="25" height="24" viewBox="0 0 25 24" fill="none" xmlns="http://www.w3.org/2000/svg">
<path d="M20.25 11.9994C20.2499 12.2646 20.1445 12.5189 19.957 12.7064L13.957 18.7064C13.7684 18.8886 13.5158 18.9894 13.2536 18.9871C12.9914 18.9848 12.7406 18.8797 12.5552 18.6942C12.3698 18.5088 12.2646 18.258 12.2623 17.9958C12.26 17.7336 12.3608 17.481 12.543 17.2924L16.836 12.9994L5.25 12.9994C4.98478 12.9994 4.73043 12.8941 4.54289 12.7065C4.35536 12.519 4.25 12.2646 4.25 11.9994C4.25 11.7342 4.35536 11.4799 4.54289 11.2923C4.73043 11.1048 4.98478 10.9994 5.25 10.9994L16.836 10.9994L12.543 6.70643C12.3608 6.51783 12.26 6.26523 12.2623 6.00303C12.2646 5.74083 12.3698 5.49002 12.5552 5.30461C12.7406 5.1192 12.9914 5.01404 13.2536 5.01176C13.5158 5.00948 13.7684 5.11027 13.957 5.29243L19.957 11.2924C20.1445 11.4799 20.2499 11.7342 20.25 11.9994Z" fill="#151515"/>
</svg>
