<svg width="25" height="24" viewBox="0 0 25 24" fill="none" xmlns="http://www.w3.org/2000/svg">
<path d="M22.25 6.18558V18.5453C22.25 19.3486 21.64 19.9991 20.8867 19.9991H17.7042V11.7599L12.25 16.123L6.79583 11.7599V20H3.61333C3.43423 20 3.25688 19.9624 3.09142 19.8893C2.92595 19.8161 2.77562 19.709 2.64902 19.5739C2.52241 19.4388 2.422 19.2784 2.35354 19.1019C2.28507 18.9255 2.24989 18.7363 2.25 18.5453V6.18558C2.25 4.38791 4.17417 3.36156 5.5225 4.44034L6.79583 5.45958L12.25 9.82091L17.7042 5.4578L18.9775 4.44034C20.325 3.36245 22.25 4.38791 22.25 6.18558Z" fill="#151515"/>
</svg>
