<svg width="25" height="24" viewBox="0 0 25 24" fill="none" xmlns="http://www.w3.org/2000/svg">
<path opacity="0.987" fill-rule="evenodd" clip-rule="evenodd" d="M11.0634 1.59112C12.1509 1.46962 12.7944 1.46962 13.9629 1.59112C16.0313 1.89727 17.9487 2.85335 19.4379 4.32113C18.4316 5.27233 17.4385 6.23742 16.4589 7.21612C14.5829 5.62612 12.4889 5.25912 10.1769 6.11513C8.48087 6.89512 7.29987 8.15913 6.63387 9.90713C5.54554 9.09687 4.47137 8.26774 3.41188 7.42013C3.33824 7.38137 3.25415 7.36718 3.17188 7.37962C4.85487 4.13462 7.48488 2.20462 11.0619 1.58962" fill="#F44336"/>
<path opacity="0.997" fill-rule="evenodd" clip-rule="evenodd" d="M3.16938 7.37978C3.25438 7.36678 3.33488 7.38028 3.41088 7.42028C4.47038 8.2679 5.54454 9.09703 6.63288 9.90728C6.46162 10.5884 6.35366 11.2838 6.31038 11.9848C6.34738 12.6628 6.45488 13.3283 6.63288 13.9813L3.25038 16.6738C1.77738 13.5958 1.75038 10.4978 3.16938 7.37978Z" fill="#FFC107"/>
<path opacity="0.999" fill-rule="evenodd" clip-rule="evenodd" d="M19.2742 19.9341C18.221 19.0053 17.1184 18.134 15.9712 17.3241C17.1212 16.5121 17.8192 15.3981 18.0652 13.9821H12.4297V10.0686C15.6797 10.0416 18.9282 10.0691 22.1752 10.1511C22.7912 13.4961 22.0797 16.5121 20.0407 19.1991C19.7982 19.4569 19.5414 19.7022 19.2742 19.9341Z" fill="#448AFF"/>
<path opacity="0.993" fill-rule="evenodd" clip-rule="evenodd" d="M6.6325 13.9824C7.8625 17.0394 10.1175 18.4664 13.3975 18.2634C14.3182 18.1568 15.201 17.8352 15.9745 17.3244C17.1225 18.1364 18.2235 19.0064 19.2775 19.9344C17.6075 21.4351 15.4782 22.3255 13.237 22.4604C12.7278 22.5011 12.2162 22.5011 11.707 22.4604C7.889 22.0104 5.07 20.0814 3.25 16.6734L6.6325 13.9824Z" fill="#43A047"/>
</svg>
