<svg viewBox="0 0 25 24" xmlns="http://www.w3.org/2000/svg"><path d="M7.75 15.5H16.75V16.25C16.75 16.4667 16.821 16.646 16.963 16.788C17.105 16.93 17.284 17.0007 17.5 17C17.716 16.9993 17.8953 16.9283 18.038 16.787C18.1807 16.6457 18.2513 16.4667 18.25 16.25V12.85C18.25 12.35 18.1123 11.9043 17.837 11.513C17.5617 11.1217 17.1993 10.834 16.75 10.65V9C16.75 8.45 16.5543 7.97933 16.163 7.588C15.7717 7.19667 15.3007 7.00067 14.75 7H9.75C9.2 7 8.72933 7.196 8.338 7.588C7.94667 7.98 7.75067 8.45067 7.75 9V10.65C7.3 10.8333 6.93733 11.121 6.662 11.513C6.38667 11.905 6.24933 12.3507 6.25 12.85V16.25C6.25 16.4667 6.321 16.646 6.463 16.788C6.605 16.93 6.784 17.0007 7 17C7.216 16.9993 7.39533 16.9283 7.538 16.787C7.68067 16.6457 7.75133 16.4667 7.75 16.25V15.5ZM7.75 14V12.85C7.75 12.6167 7.83333 12.4167 8 12.25C8.16667 12.0833 8.36667 12 8.6 12H15.9C16.1333 12 16.3333 12.0833 16.5 12.25C16.6667 12.4167 16.75 12.6167 16.75 12.85V14H7.75ZM9.25 10.5V8.5H15.25V10.5H9.25ZM4.25 22C3.7 22 3.22933 21.8043 2.838 21.413C2.44667 21.0217 2.25067 20.5507 2.25 20V4C2.25 3.45 2.446 2.97933 2.838 2.588C3.23 2.19667 3.70067 2.00067 4.25 2H20.25C20.8 2 21.271 2.196 21.663 2.588C22.055 2.98 22.2507 3.45067 22.25 4V20C22.25 20.55 22.0543 21.021 21.663 21.413C21.2717 21.805 20.8007 22.0007 20.25 22H4.25ZM4.25 20H20.25V4H4.25V20Z"/></svg>