<svg width="25" height="24" viewBox="0 0 25 24" fill="none" xmlns="http://www.w3.org/2000/svg">
<path d="M6.75 20C5.23333 20 3.93767 19.475 2.863 18.425C1.78833 17.375 1.25067 16.0917 1.25 14.575C1.25 13.275 1.64167 12.1167 2.425 11.1C3.20833 10.0833 4.23333 9.43333 5.5 9.15C5.91667 7.61667 6.75 6.375 8 5.425C9.25 4.475 10.6667 4 12.25 4C14.2 4 15.8543 4.67933 17.213 6.038C18.5717 7.39667 19.2507 9.05067 19.25 11C20.4 11.1333 21.3543 11.6293 22.113 12.488C22.8717 13.3467 23.2507 14.3507 23.25 15.5C23.25 16.75 22.8127 17.8127 21.938 18.688C21.0633 19.5633 20.0007 20.0007 18.75 20H6.75ZM6.75 18H18.75C19.45 18 20.0417 17.7583 20.525 17.275C21.0083 16.7917 21.25 16.2 21.25 15.5C21.25 14.8 21.0083 14.2083 20.525 13.725C20.0417 13.2417 19.45 13 18.75 13H17.25V11C17.25 9.61667 16.7623 8.43733 15.787 7.462C14.8117 6.48667 13.6327 5.99933 12.25 6C10.8673 6.00067 9.68833 6.48833 8.713 7.463C7.73767 8.43767 7.25 9.61667 7.25 11H6.75C5.78333 11 4.95833 11.3417 4.275 12.025C3.59167 12.7083 3.25 13.5333 3.25 14.5C3.25 15.4667 3.59167 16.2917 4.275 16.975C4.95833 17.6583 5.78333 18 6.75 18Z" fill="#151515"/>
</svg>
