<svg width="25" height="24" viewBox="0 0 25 24" fill="none" xmlns="http://www.w3.org/2000/svg">
<path d="M16.782 17.2983C16.5034 17.401 16.5474 18.325 16.826 18.4276C16.958 18.4716 18.1314 18.5156 19.4367 18.5156C21.93 18.5156 22.1647 18.457 22.1647 17.8556C22.1647 17.2543 21.93 17.1956 19.378 17.2103C18.0434 17.2103 16.87 17.2543 16.782 17.2983Z" fill="#151515"/>
<path d="M7.13847 7.02205C6.7639 7.86977 6.03446 9.48637 5.5416 10.6298C5.04873 11.7733 4.47701 13.0547 4.29958 13.4884C2.88013 16.6625 2.32812 17.9833 2.32812 18.2199C2.32812 18.4171 2.54498 18.5156 3.01813 18.5156C3.57014 18.5156 3.74757 18.4171 3.88557 18.0622C3.98415 17.8256 4.33901 17.037 4.67416 16.2879C5.0093 15.5584 5.28531 14.9276 5.28531 14.8684C5.28531 14.829 5.5416 14.2376 5.85703 13.5476C6.17246 12.8576 6.60618 11.8521 6.84276 11.3198C8.20306 8.16549 8.30163 8.0472 8.65649 8.9935C9.05079 10.0581 11.8897 16.4653 12.3825 17.4313C12.7768 18.2199 12.9937 18.4368 13.4471 18.4762C13.7626 18.5156 14.078 18.4762 14.1569 18.3776C14.2949 18.2396 13.6443 16.623 12.0671 13.2321C11.8108 12.6604 11.594 12.1478 11.594 12.1084C11.594 12.0493 11.2785 11.3395 10.904 10.5115C10.5294 9.70323 10.2139 8.9935 10.2139 8.93436C10.2139 8.89493 9.85908 8.08663 9.42536 7.17976C8.40021 4.95202 8.10449 4.93231 7.13847 7.02205Z" fill="#151515"/>
</svg>
