<svg viewBox="0 0 25 24" xmlns="http://www.w3.org/2000/svg"><path d="M12.25 21C11.0113 21 9.84467 20.7633 8.75001 20.29C7.65534 19.816 6.70201 19.1727 5.89001 18.36C5.07801 17.5473 4.43467 16.594 3.96001 15.5C3.48534 14.406 3.24867 13.2393 3.25001 12C3.25001 10.7573 3.48667 9.58967 3.96001 8.497C4.43401 7.40367 5.07734 6.45133 5.89001 5.64C6.70267 4.82867 7.65601 4.18533 8.75001 3.71C9.84467 3.23667 11.0113 3 12.25 3C13.4927 3 14.6603 3.23667 15.753 3.71C16.8463 4.184 17.799 4.82733 18.611 5.64C19.423 6.45267 20.066 7.405 20.54 8.497C21.0133 9.59033 21.25 10.758 21.25 12C21.25 13.2387 21.0133 14.4053 20.54 15.5C20.066 16.5947 19.4227 17.548 18.61 18.36C17.7973 19.172 16.845 19.8153 15.753 20.29C14.661 20.7647 13.4933 21.0013 12.25 21ZM12.25 20.008C12.8367 19.254 13.3207 18.5137 13.702 17.787C14.0827 17.0603 14.3923 16.247 14.631 15.347H9.86901C10.1337 16.2977 10.4497 17.1363 10.817 17.863C11.185 18.5897 11.6627 19.3047 12.25 20.008ZM10.977 19.858C10.5103 19.308 10.0843 18.628 9.69901 17.818C9.31367 17.0087 9.02701 16.1847 8.83901 15.346H5.00401C5.57734 16.5893 6.38967 17.6093 7.44101 18.406C8.49301 19.202 9.67167 19.686 10.977 19.858ZM13.523 19.858C14.8283 19.686 16.007 19.202 17.059 18.406C18.1103 17.6093 18.9227 16.5893 19.496 15.346H15.662C15.4087 16.1973 15.0897 17.0277 14.705 17.837C14.3197 18.647 13.9257 19.3213 13.523 19.858ZM4.59601 14.347H8.63101C8.55501 13.9363 8.50167 13.5363 8.47101 13.147C8.43901 12.7583 8.42301 12.376 8.42301 12C8.42301 11.624 8.43867 11.2417 8.47001 10.853C8.50134 10.4643 8.55467 10.0643 8.63001 9.653H4.59701C4.48834 9.99967 4.40334 10.3773 4.34201 10.786C4.28067 11.194 4.25001 11.5987 4.25001 12C4.25001 12.4013 4.28034 12.8063 4.34101 13.215C4.40167 13.6237 4.48667 14.0007 4.59601 14.346M9.63101 14.346H14.869C14.945 13.936 14.9983 13.5427 15.029 13.166C15.061 12.79 15.077 12.4013 15.077 12C15.077 11.5987 15.0613 11.21 15.03 10.834C14.9987 10.458 14.9453 10.0647 14.87 9.654H9.63001C9.55467 10.064 9.50134 10.4573 9.47001 10.834C9.43867 11.21 9.42301 11.5987 9.42301 12C9.42301 12.4013 9.43867 12.79 9.47001 13.166C9.50134 13.542 9.55567 13.9353 9.63101 14.346ZM15.87 14.346H19.904C20.0127 14 20.0977 13.623 20.159 13.215C20.2197 12.8063 20.25 12.4013 20.25 12C20.25 11.5987 20.2197 11.1937 20.159 10.785C20.0983 10.3763 20.0133 9.99933 19.904 9.654H15.869C15.945 10.064 15.9983 10.4637 16.029 10.853C16.061 11.2423 16.077 11.6247 16.077 12C16.077 12.3753 16.0613 12.7577 16.03 13.147C15.9987 13.5363 15.9453 13.9363 15.87 14.347M15.662 8.654H19.496C18.91 7.38467 18.1073 6.36467 17.088 5.594C16.0687 4.82333 14.8803 4.333 13.523 4.123C13.9897 4.737 14.4093 5.43933 14.782 6.23C15.1547 7.02 15.448 7.828 15.662 8.654ZM9.86901 8.654H14.631C14.367 7.71533 14.0413 6.86667 13.654 6.108C13.2667 5.34933 12.7987 4.644 12.25 3.992C11.7013 4.64333 11.2333 5.34867 10.846 6.108C10.4587 6.86733 10.1323 7.716 9.86901 8.654ZM5.00501 8.654H8.83901C9.05301 7.82867 9.34634 7.02067 9.71901 6.23C10.0917 5.43933 10.5113 4.737 10.978 4.123C9.60867 4.33367 8.41734 4.827 7.40401 5.603C6.39067 6.38033 5.59067 7.397 5.00401 8.653"/></svg>