<svg width="25" height="24" viewBox="0 0 25 24" fill="none" xmlns="http://www.w3.org/2000/svg">
<path d="M22.25 16V4C22.25 3.46957 22.0393 2.96086 21.6642 2.58579C21.2891 2.21071 20.7804 2 20.25 2H8.25C7.71957 2 7.21086 2.21071 6.83579 2.58579C6.46071 2.96086 6.25 3.46957 6.25 4V16C6.25 16.5304 6.46071 17.0391 6.83579 17.4142C7.21086 17.7893 7.71957 18 8.25 18H20.25C20.7804 18 21.2891 17.7893 21.6642 17.4142C22.0393 17.0391 22.25 16.5304 22.25 16ZM11.25 12L13.28 14.71L16.25 11L20.25 16H8.25M2.25 6V20C2.25 20.5304 2.46071 21.0391 2.83579 21.4142C3.21086 21.7893 3.71957 22 4.25 22H18.25V20H4.25V6" fill="#151515"/>
</svg>
