<svg viewBox="0 0 25 24" xmlns="http://www.w3.org/2000/svg"><path d="M8.05 2H16.45C19.65 2 22.25 4.6 22.25 7.8V16.2C22.25 17.7383 21.6389 19.2135 20.5512 20.3012C19.4635 21.3889 17.9883 22 16.45 22H8.05C4.85 22 2.25 19.4 2.25 16.2V7.8C2.25 6.26174 2.86107 4.78649 3.94878 3.69878C5.03649 2.61107 6.51174 2 8.05 2ZM7.85 4C6.89522 4 5.97955 4.37928 5.30442 5.05442C4.62928 5.72955 4.25 6.64522 4.25 7.6V16.4C4.25 18.39 5.86 20 7.85 20H16.65C17.6048 20 18.5205 19.6207 19.1956 18.9456C19.8707 18.2705 20.25 17.3548 20.25 16.4V7.6C20.25 5.61 18.64 4 16.65 4H7.85ZM17.5 5.5C17.8315 5.5 18.1495 5.6317 18.3839 5.86612C18.6183 6.10054 18.75 6.41848 18.75 6.75C18.75 7.08152 18.6183 7.39946 18.3839 7.63388C18.1495 7.8683 17.8315 8 17.5 8C17.1685 8 16.8505 7.8683 16.6161 7.63388C16.3817 7.39946 16.25 7.08152 16.25 6.75C16.25 6.41848 16.3817 6.10054 16.6161 5.86612C16.8505 5.6317 17.1685 5.5 17.5 5.5ZM12.25 7C13.5761 7 14.8479 7.52678 15.7855 8.46447C16.7232 9.40215 17.25 10.6739 17.25 12C17.25 13.3261 16.7232 14.5979 15.7855 15.5355C14.8479 16.4732 13.5761 17 12.25 17C10.9239 17 9.65215 16.4732 8.71447 15.5355C7.77678 14.5979 7.25 13.3261 7.25 12C7.25 10.6739 7.77678 9.40215 8.71447 8.46447C9.65215 7.52678 10.9239 7 12.25 7ZM12.25 9C11.4544 9 10.6913 9.31607 10.1287 9.87868C9.56607 10.4413 9.25 11.2044 9.25 12C9.25 12.7956 9.56607 13.5587 10.1287 14.1213C10.6913 14.6839 11.4544 15 12.25 15C13.0456 15 13.8087 14.6839 14.3713 14.1213C14.9339 13.5587 15.25 12.7956 15.25 12C15.25 11.2044 14.9339 10.4413 14.3713 9.87868C13.8087 9.31607 13.0456 9 12.25 9Z"/></svg>