<svg viewBox="0 0 24 24"><path d="M12 21a8.7 8.7 0 0 1-3.5-.71 9.1 9.1 0 0 1-2.86-1.93 9.2 9.2 0 0 1-1.93-2.86A8.7 8.7 0 0 1 3 12q0-1.864.71-3.503A9.1 9.1 0 0 1 5.64 5.64 9.2 9.2 0 0 1 8.5 3.71 8.7 8.7 0 0 1 12 3q1.864 0 3.503.71a9.1 9.1 0 0 1 2.858 1.93 9.2 9.2 0 0 1 1.929 2.857A8.7 8.7 0 0 1 21 12a8.7 8.7 0 0 1-.71 3.5 9.1 9.1 0 0 1-1.93 2.86 9.2 9.2 0 0 1-2.857 1.93A8.7 8.7 0 0 1 12 21m0-.992a15 15 0 0 0 1.452-2.221q.57-1.09.929-2.44H9.619q.397 1.426.948 2.516.552 1.09 1.433 2.145m-1.273-.15q-.7-.825-1.278-2.04a11.7 11.7 0 0 1-.86-2.472H4.754a7.94 7.94 0 0 0 2.437 3.06 7.36 7.36 0 0 0 3.536 1.452m2.546 0a7.36 7.36 0 0 0 3.536-1.452 7.94 7.94 0 0 0 2.437-3.06h-3.834a17 17 0 0 1-.957 2.491q-.578 1.215-1.182 2.021m-8.927-5.511h4.035q-.115-.615-.16-1.2a14 14 0 0 1-.001-2.294q.047-.583.16-1.2H4.347a8.2 8.2 0 0 0-.256 3.562q.09.614.255 1.131m5.035 0h5.238q.114-.615.16-1.18.048-.564.048-1.166t-.047-1.166-.16-1.18H9.38q-.113.615-.16 1.18-.047.564-.047 1.166t.047 1.166.161 1.18m6.239 0h4.034q.164-.519.255-1.131a8.3 8.3 0 0 0 0-2.43 7 7 0 0 0-.255-1.131h-4.035q.114.615.16 1.199a14 14 0 0 1 .001 2.294q-.047.585-.16 1.2m-.208-5.693h3.834q-.88-1.905-2.408-3.06-1.53-1.155-3.565-1.471.7.92 1.259 2.107.56 1.185.88 2.424m-5.793 0h4.762a14 14 0 0 0-.977-2.546A11 11 0 0 0 12 3.992a11 11 0 0 0-1.404 2.116q-.582 1.14-.977 2.546m-4.864 0h3.834a14 14 0 0 1 .88-2.424 11.7 11.7 0 0 1 1.259-2.107q-2.054.316-3.574 1.48-1.52 1.166-2.4 3.05"/></svg>