<svg viewBox="0 0 25 24" xmlns="http://www.w3.org/2000/svg"><path d="M9.625 11.25C9.52554 11.25 9.43016 11.2895 9.35983 11.3598C9.28951 11.4302 9.25 11.5255 9.25 11.625V14.625C9.25 14.7245 9.28951 14.8198 9.35983 14.8902C9.43016 14.9605 9.52554 15 9.625 15C9.72446 15 9.81984 14.9605 9.89017 14.8902C9.96049 14.8198 10 14.7245 10 14.625V11.625C10 11.5255 9.96049 11.4302 9.89017 11.3598C9.81984 11.2895 9.72446 11.25 9.625 11.25ZM12.25 6C14.3207 6 16 5.37 16 4.59375C16 3.8175 14.32 3.1875 12.25 3.1875C10.18 3.1875 8.5 3.8175 8.5 4.59375C8.5 5.37 10.1793 6 12.25 6ZM12.25 5.25C11.0073 5.25 10 4.914 10 4.5C10 4.086 11.0073 3.75 12.25 3.75C13.4928 3.75 14.5 4.086 14.5 4.5C14.5 4.914 13.4928 5.25 12.25 5.25Z"/><path d="M21.2958 5.424C20.8845 5.01278 20.33 4.77678 19.7485 4.7655C19.7163 3.957 19.3255 3.29475 18.8575 2.811C18.3753 2.31225 17.7505 1.93125 17.095 1.64475C15.7773 1.06875 14.0643 0.75 12.2493 0.75C10.4365 0.75 8.72277 1.06875 7.40577 1.64475C6.75027 1.93125 6.12477 2.31225 5.64327 2.811C5.15502 3.3165 4.75077 4.01625 4.75077 4.875V11.1645C4.40342 11.1131 4.04887 11.1437 3.71547 11.2539C3.38208 11.3641 3.0791 11.5508 2.83077 11.799L2.29977 12.3292C2.0908 12.5382 1.92503 12.7862 1.81193 13.0592C1.69884 13.3323 1.64063 13.6249 1.64062 13.9204C1.64063 14.2159 1.69884 14.5085 1.81193 14.7815C1.92503 15.0545 2.0908 15.3026 2.29977 15.5115L4.75077 17.9625V19.125C4.75077 19.9837 5.15502 20.6835 5.64327 21.1898C6.12552 21.6877 6.75102 22.068 7.40652 22.3552C8.72352 22.9312 10.4365 23.25 12.2508 23.25C13.8108 23.25 15.286 23.0145 16.4973 22.59C17.2263 22.3343 17.9133 21.9907 18.4675 21.5445C19.123 21.0165 19.7508 20.2043 19.7508 19.125V11.2125L21.8268 9.1365C22.0357 8.92756 22.2015 8.67951 22.3146 8.4065C22.4277 8.13349 22.4859 7.84088 22.4859 7.54537C22.4859 7.24987 22.4277 6.95726 22.3146 6.68425C22.2015 6.41124 22.0357 6.16319 21.8268 5.95425L21.2958 5.424ZM6.25077 14.16V7.45875C6.48627 7.62825 6.73902 7.779 7.00077 7.91325V10.875C7.00077 10.9745 7.04028 11.0698 7.1106 11.1402C7.18093 11.2105 7.27631 11.25 7.37577 11.25C7.47523 11.25 7.57061 11.2105 7.64094 11.1402C7.71126 11.0698 7.75077 10.9745 7.75077 10.875V8.24625C9.01527 8.73375 10.591 9 12.2508 9C14.0643 9 15.778 8.68125 17.0943 8.10525C17.7505 7.818 18.376 7.43775 18.8575 6.939C19.0165 6.77475 19.1665 6.59025 19.2963 6.38625C19.4404 6.29256 19.6122 6.2512 19.7832 6.26908C19.9541 6.28697 20.1137 6.36302 20.2353 6.4845L20.7663 7.0155C20.9069 7.15615 20.9859 7.34688 20.9859 7.54575C20.9859 7.74462 20.9069 7.93535 20.7663 8.076L18.2508 10.59V19.125C18.2508 19.578 17.9883 20.004 17.5263 20.376C17.3088 20.551 17.0503 20.7127 16.7508 20.8612V17.625C16.7508 17.5255 16.7113 17.4302 16.6409 17.3598C16.5706 17.2895 16.4752 17.25 16.3758 17.25C16.2763 17.25 16.1809 17.2895 16.1106 17.3598C16.0403 17.4302 16.0008 17.5255 16.0008 17.625V21.174C14.9733 21.534 13.6698 21.75 12.2508 21.75C8.93727 21.75 6.25077 20.5748 6.25077 19.125V17.3407L3.36027 14.451C3.29054 14.3813 3.23522 14.2986 3.19747 14.2076C3.15973 14.1165 3.1403 14.0189 3.1403 13.9204C3.1403 13.8218 3.15973 13.7242 3.19747 13.6332C3.23522 13.5421 3.29054 13.4594 3.36027 13.3898L3.89127 12.8595C4.03192 12.7189 4.22265 12.6399 4.42152 12.6399C4.62039 12.6399 4.81112 12.7189 4.95177 12.8595L6.25077 14.16ZM18.2508 4.875C18.2508 6.32475 15.5643 7.5 12.2508 7.5C8.93727 7.5 6.25077 6.32475 6.25077 4.875C6.25077 3.42525 8.93727 2.25 12.2508 2.25C15.5643 2.25 18.2508 3.42525 18.2508 4.875Z"/></svg>