<svg width="25" height="24" viewBox="0 0 25 24" fill="none" xmlns="http://www.w3.org/2000/svg">
<path d="M12.25 11.5C11.587 11.5 10.9511 11.2366 10.4822 10.7678C10.0134 10.2989 9.75 9.66304 9.75 9C9.75 8.33696 10.0134 7.70107 10.4822 7.23223C10.9511 6.76339 11.587 6.5 12.25 6.5C12.913 6.5 13.5489 6.76339 14.0178 7.23223C14.4866 7.70107 14.75 8.33696 14.75 9C14.75 9.3283 14.6853 9.65339 14.5597 9.95671C14.4341 10.26 14.2499 10.5356 14.0178 10.7678C13.7856 10.9999 13.51 11.1841 13.2067 11.3097C12.9034 11.4353 12.5783 11.5 12.25 11.5ZM12.25 2C10.3935 2 8.61301 2.7375 7.30025 4.05025C5.9875 5.36301 5.25 7.14348 5.25 9C5.25 14.25 12.25 22 12.25 22C12.25 22 19.25 14.25 19.25 9C19.25 7.14348 18.5125 5.36301 17.1997 4.05025C15.887 2.7375 14.1065 2 12.25 2Z" fill="#151515"/>
</svg>
