<svg width="25" height="24" viewBox="0 0 25 24" fill="none" xmlns="http://www.w3.org/2000/svg">
<path d="M3.20248 3.81468C2.73315 3.97601 2.16848 4.49668 1.92648 4.98801C1.78715 5.27401 1.76515 5.45001 1.75781 6.09535C1.75781 6.78468 1.77981 6.90201 1.95581 7.23201C2.24181 7.78201 2.79181 8.25868 3.30515 8.41268C3.67181 8.51535 3.80381 8.52268 4.15581 8.44935C4.68381 8.33935 5.12381 8.11201 5.40248 7.78935L5.62981 7.53268L5.46115 7.40068C5.24848 7.23201 5.11648 7.23201 5.02848 7.40801C4.90381 7.62801 4.22915 7.92868 3.85515 7.92868C2.96781 7.92135 2.23448 7.09268 2.23448 6.10268C2.23448 5.25201 2.84315 4.39401 3.51048 4.29868C4.14115 4.20335 4.72048 4.39401 5.00648 4.79001C5.13115 4.95868 5.25581 4.95868 5.46115 4.79001L5.62248 4.65801L5.43181 4.43068C5.16781 4.12268 4.80848 3.90268 4.33915 3.77801C3.84048 3.64601 3.67181 3.65335 3.20248 3.81468Z" fill="#151515"/>
<path d="M8.23096 3.91158C8.16496 4.04358 8.00363 4.41758 7.85696 4.74025C7.22629 6.18492 7.04296 6.60292 6.84496 7.03558C6.72763 7.29225 6.63229 7.51225 6.63229 7.52692C6.63229 7.54892 6.55163 7.73958 6.44896 7.95958C6.34629 8.17958 6.26562 8.39958 6.26562 8.43625C6.26562 8.48025 6.38296 8.51692 6.52229 8.51692C6.80829 8.51692 6.76429 8.59758 7.47563 6.97692C7.62963 6.63225 7.84229 6.15558 7.95229 5.91358C8.06229 5.67158 8.19429 5.34892 8.25296 5.19492C8.30429 5.04092 8.39229 4.87958 8.44363 4.83558C8.54629 4.75492 8.49496 4.65225 9.58763 7.12358L10.189 8.48025L10.4676 8.50225C10.6143 8.51692 10.739 8.49492 10.739 8.45825C10.739 8.40692 9.98363 6.65425 9.41896 5.40025C9.34563 5.23892 9.21363 4.92358 9.11829 4.70358C8.81029 3.97025 8.65629 3.71358 8.49496 3.69158C8.37763 3.67692 8.31163 3.73558 8.23096 3.91158Z" fill="#151515"/>
<path d="M12.9801 3.77878C12.5474 3.91078 12.2981 4.10145 12.1001 4.44612C11.8948 4.79078 11.8654 5.12812 12.0194 5.42145C12.2101 5.78812 12.5548 6.01545 13.4568 6.35278C13.7574 6.46278 14.1388 6.64612 14.3001 6.75612C14.5568 6.92478 14.5934 6.98345 14.5861 7.21812C14.5714 7.68745 14.0068 7.98078 13.2588 7.90745C12.8188 7.86345 12.5401 7.70212 12.3861 7.40878C12.2981 7.23278 12.2321 7.19612 12.0268 7.19612C11.7408 7.19612 11.7261 7.24012 11.8728 7.58478C12.1074 8.14945 12.9728 8.58212 13.6694 8.48678C14.7474 8.34012 15.4441 7.49678 15.0848 6.77812C14.8941 6.40412 14.5494 6.17678 13.6034 5.80278C12.4594 5.34812 12.2028 4.96678 12.7308 4.51945C13.2808 4.06478 14.3368 4.26278 14.5274 4.86412C14.5568 4.95945 14.6374 4.99612 14.8208 4.99612C15.1141 4.99612 15.1361 4.90078 14.9234 4.48278C14.7548 4.14545 14.4468 3.91812 13.9921 3.77878C13.5888 3.65412 13.3688 3.65412 12.9801 3.77878Z" fill="#151515"/>
<path d="M18.0648 3.80029C17.8888 4.09362 16.0335 8.40562 16.0628 8.45696C16.1215 8.55229 16.5102 8.52296 16.5908 8.42029C16.6275 8.37629 16.8842 7.81896 17.1555 7.19562C17.4268 6.57229 17.7275 5.89029 17.8155 5.69229C17.9108 5.48696 18.0355 5.20096 18.0942 5.04696C18.2702 4.62896 18.2995 4.65096 18.6955 5.60429C18.7615 5.75829 18.9082 6.09562 19.0255 6.35962C19.1502 6.61629 19.2455 6.84362 19.2455 6.86562C19.2455 6.88029 19.3555 7.12962 19.4948 7.43029C19.6268 7.72362 19.7588 8.03896 19.7882 8.12696C19.8688 8.38362 20.0375 8.51562 20.2795 8.51562C20.5582 8.51562 20.5508 8.43496 20.2355 7.75296C20.0962 7.45229 19.8395 6.86562 19.6562 6.44762C18.4975 3.76362 18.4535 3.67562 18.2848 3.67562C18.2115 3.67562 18.1088 3.73429 18.0648 3.80029Z" fill="#151515"/>
<path d="M10.2669 9.62304C10.2449 9.6817 10.2376 10.767 10.2449 12.0357L10.2669 14.3457H11.3669C12.2983 14.3457 12.5109 14.3237 12.7456 14.2064C13.1196 14.023 13.5009 13.627 13.7356 13.1797C13.9189 12.835 13.9336 12.7397 13.9336 11.9624C13.9263 11.0164 13.8383 10.7597 13.3396 10.2024C12.8776 9.69637 12.5476 9.58637 11.3523 9.55704C10.5163 9.53504 10.2963 9.5497 10.2669 9.62304ZM12.5843 10.2977C12.8116 10.415 12.9803 10.5837 13.1489 10.8624C13.3689 11.2364 13.3836 11.295 13.3836 11.9624C13.3763 12.7984 13.2223 13.1797 12.7309 13.5537C12.4229 13.7957 12.4083 13.7957 11.6163 13.7957H10.8169V11.9624V10.129H11.5356C12.1516 10.129 12.3129 10.1584 12.5843 10.2977Z" fill="#151515"/>
<path d="M15.181 9.6377C15.159 9.68904 15.1517 10.767 15.159 12.0357L15.181 14.3457H16.8677H18.5543L18.5763 14.1037C18.591 13.979 18.591 13.8617 18.5763 13.8544C18.5617 13.847 17.909 13.825 17.1243 13.803L15.6943 13.759V13.0257V12.2924L16.721 12.2557L17.7477 12.219L17.7697 11.9844C17.799 11.691 17.7477 11.6764 16.5743 11.647L15.6943 11.6324V10.899V10.1657L17.1243 10.129C18.547 10.0924 18.5543 10.0924 18.5763 9.9237C18.6277 9.55704 18.547 9.54237 16.8163 9.54237C15.599 9.54237 15.203 9.56437 15.181 9.6377Z" fill="#151515"/>
<path d="M20.0169 9.70415C19.9949 9.79948 19.9876 10.8775 19.9949 12.1095L20.0169 14.3461L21.4323 14.3681L22.8476 14.3828L22.8256 14.1115L22.8036 13.8328L21.6889 13.8108L20.5669 13.7888L20.5523 11.6841L20.5303 9.57948L20.2956 9.55748C20.0976 9.53548 20.0536 9.56481 20.0169 9.70415Z" fill="#151515"/>
<path d="M3.43777 16.0469C3.29844 16.3623 3.0271 16.9636 2.84377 17.3889C2.66044 17.8143 2.44777 18.2909 2.38177 18.4523C1.85377 19.6329 1.64844 20.1243 1.64844 20.2123C1.64844 20.2856 1.7291 20.3223 1.9051 20.3223C2.11044 20.3223 2.17644 20.2856 2.22777 20.1536C2.26444 20.0656 2.39644 19.7723 2.5211 19.4936C2.64577 19.2223 2.74844 18.9876 2.74844 18.9656C2.74844 18.9509 2.84377 18.7309 2.9611 18.4743C3.07844 18.2176 3.23977 17.8436 3.32777 17.6456C3.83377 16.4723 3.87044 16.4283 4.00244 16.7803C4.1491 17.1763 5.2051 19.5596 5.38844 19.9189C5.5351 20.2123 5.61577 20.2929 5.78444 20.3076C5.90177 20.3223 6.0191 20.3076 6.04844 20.2709C6.09977 20.2196 5.85777 19.6183 5.2711 18.3569C5.17577 18.1443 5.0951 17.9536 5.0951 17.9389C5.0951 17.9169 4.97777 17.6529 4.83844 17.3449C4.6991 17.0443 4.58177 16.7803 4.58177 16.7583C4.58177 16.7436 4.44977 16.4429 4.28844 16.1056C3.9071 15.2769 3.7971 15.2696 3.43777 16.0469Z" fill="#151515"/>
<path d="M7.69663 15.5782C7.67463 15.6296 7.66729 16.6929 7.67463 17.9396L7.69663 20.2129H7.95329H8.20996L8.23196 17.8442L8.24663 15.4829H7.98996C7.84329 15.4829 7.71129 15.5269 7.69663 15.5782Z" fill="#151515"/>
<path d="M10.2669 15.5793C10.2449 15.6307 10.2376 16.694 10.2449 17.9407L10.2669 20.214H10.5236H10.7803L10.8023 19.1653L10.8243 18.124H11.5356C12.2249 18.124 12.2616 18.1313 12.4376 18.322C12.7309 18.652 12.8556 18.8867 13.0903 19.5687C13.3029 20.2067 13.3029 20.214 13.5596 20.236C13.7576 20.2507 13.8236 20.2287 13.8236 20.148C13.8236 19.9647 13.3763 18.7693 13.1783 18.4027L12.9876 18.058L13.2883 17.7793C13.6476 17.4493 13.7503 17.2147 13.7503 16.7527C13.7503 16.32 13.5376 15.968 13.0976 15.6967C12.7676 15.484 12.7676 15.484 11.5356 15.484C10.6116 15.484 10.2889 15.506 10.2669 15.5793ZM12.7676 16.1147C13.0463 16.2467 13.2369 16.54 13.2369 16.8333C13.2369 17.0753 12.9143 17.442 12.6503 17.5007C12.4816 17.5373 11.2789 17.5667 10.9123 17.5447C10.8389 17.5373 10.8169 17.332 10.8169 16.7673V15.9973H11.6676C12.3056 15.9973 12.5843 16.0267 12.7676 16.1147Z" fill="#151515"/>
<path d="M15.2109 17.8667V20.25L16.9196 20.2353L18.6209 20.2133L18.6429 19.9713C18.6576 19.8467 18.6576 19.7293 18.6429 19.722C18.6283 19.7147 17.9756 19.6927 17.1909 19.6707L15.7609 19.6267L15.7536 19.0033C15.7389 18.0573 15.6509 18.1307 16.8096 18.1087L17.8143 18.0867L17.8363 17.852C17.8656 17.5513 17.7923 17.5293 16.6923 17.5587C16.1936 17.566 15.8416 17.544 15.8123 17.5C15.7243 17.368 15.7389 16.1067 15.8269 16.0553C15.8709 16.026 16.5236 15.9967 17.2863 15.9967H18.6576V15.74V15.4833H16.9343H15.2109V17.8667Z" fill="#151515"/>
<path d="M20.1488 19.7136C20.0095 19.7649 20.0315 20.2269 20.1708 20.2783C20.2368 20.3003 20.8235 20.3223 21.4762 20.3223C22.7228 20.3223 22.8402 20.2929 22.8402 19.9923C22.8402 19.6916 22.7228 19.6623 21.4468 19.6696C20.7795 19.6696 20.1928 19.6916 20.1488 19.7136Z" fill="#151515"/>
</svg>
