<svg viewBox="0 0 25 24" xmlns="http://www.w3.org/2000/svg"><path d="M4.25 18C3.96667 18 3.72934 17.904 3.538 17.712C3.34667 17.52 3.25067 17.2827 3.25 17C3.24934 16.7173 3.34534 16.48 3.538 16.288C3.73067 16.096 3.968 16 4.25 16H20.25C20.5333 16 20.771 16.096 20.963 16.288C21.155 16.48 21.2507 16.7173 21.25 17C21.2493 17.2827 21.1533 17.5203 20.962 17.713C20.7707 17.9057 20.5333 18.0013 20.25 18H4.25ZM4.25 13C3.96667 13 3.72934 12.904 3.538 12.712C3.34667 12.52 3.25067 12.2827 3.25 12C3.24934 11.7173 3.34534 11.48 3.538 11.288C3.73067 11.096 3.968 11 4.25 11H20.25C20.5333 11 20.771 11.096 20.963 11.288C21.155 11.48 21.2507 11.7173 21.25 12C21.2493 12.2827 21.1533 12.5203 20.962 12.713C20.7707 12.9057 20.5333 13.0013 20.25 13H4.25ZM4.25 8C3.96667 8 3.72934 7.904 3.538 7.712C3.34667 7.52 3.25067 7.28267 3.25 7C3.24934 6.71733 3.34534 6.48 3.538 6.288C3.73067 6.096 3.968 6 4.25 6H20.25C20.5333 6 20.771 6.096 20.963 6.288C21.155 6.48 21.2507 6.71733 21.25 7C21.2493 7.28267 21.1533 7.52033 20.962 7.713C20.7707 7.90567 20.5333 8.00133 20.25 8H4.25Z"/></svg>