<svg viewBox="0 0 25 24" xmlns="http://www.w3.org/2000/svg"><path d="M2.25 4.25352V19.5587L14.0218 22V2L2.25 4.25352ZM8.18071 15.4655C4.43849 15.2268 4.82391 8.55516 8.26807 8.50215C11.9577 8.74336 11.5958 15.4123 8.18071 15.4655ZM8.23466 9.80844C6.26315 9.94383 6.35142 14.1212 8.20425 14.1547C10.1673 14.0296 10.052 9.8409 8.23466 9.80844ZM16.0276 12.4691C16.2054 12.5983 16.4195 12.4691 16.4195 12.4691C16.2061 12.5983 22.25 8.62762 22.25 8.62762V15.8179C22.25 16.6005 21.7434 16.9288 21.1738 16.9288H14.7654L14.7658 11.612L16.0276 12.4691ZM14.7661 6.24039V10.1525L16.1483 11.0133C16.1848 11.0239 16.2638 11.0246 16.3002 11.0133L22.2492 7.04637C22.2492 6.57691 21.8064 6.24039 21.5565 6.24039H14.7661Z"/></svg>