<svg width="25" height="24" viewBox="0 0 25 24" fill="none" xmlns="http://www.w3.org/2000/svg">
<path d="M2.25 15C3.92 14.25 5.58 13.5 7.25 13.17V5C7.25 4.20435 7.56607 3.44129 8.12868 2.87868C8.69129 2.31607 9.45435 2 10.25 2C11.56 2 12.67 2.83 13.08 4H10.25C9.98478 4 9.73043 4.10536 9.54289 4.29289C9.35536 4.48043 9.25 4.73478 9.25 5V6H14.25V5C14.25 4.20435 14.5661 3.44129 15.1287 2.87868C15.6913 2.31607 16.4544 2 17.25 2C18.56 2 19.67 2.83 20.08 4H17.25C16.9848 4 16.7304 4.10536 16.5429 4.29289C16.3554 4.48043 16.25 4.73478 16.25 5V14.94C18.25 14.62 20.25 13 22.25 13V15C20.03 15 17.81 17 15.58 17C13.36 17 11.14 15 8.92 15C6.69 15 4.47 16 2.25 17V15ZM14.25 8H9.25V10H14.25V8ZM14.25 12H9.25V13C10.92 13.16 12.58 14.31 14.25 14.79V12ZM2.25 19C4.47 18 6.69 17 8.92 17C11.14 17 13.36 19 15.58 19C17.81 19 20.03 17 22.25 17V19C20.03 19 17.81 21 15.58 21C13.36 21 11.14 19 8.92 19C6.69 19 4.47 20 2.25 21V19Z" fill="#151515"/>
</svg>
