<svg viewBox="0 0 25 24" xmlns="http://www.w3.org/2000/svg"><path d="M19.75 8.66667V7C19.75 5.625 18.625 4.5 17.25 4.5H13.9167C13.275 4.5 12.6917 4.75 12.25 5.15C11.8083 4.75 11.225 4.5 10.5833 4.5H7.25C5.875 4.5 4.75 5.625 4.75 7V8.66667C3.375 8.66667 2.25 9.79167 2.25 11.1667V15.3333C2.25 16.7083 3.375 17.8333 4.75 17.8333V19.5H6.41667V17.8333H18.0833V19.5H19.75V17.8333C21.125 17.8333 22.25 16.7083 22.25 15.3333V11.1667C22.25 9.79167 21.125 8.66667 19.75 8.66667ZM13.9167 6.16667H17.25C17.7083 6.16667 18.0833 6.54167 18.0833 7V9.31667C17.575 9.775 17.25 10.4333 17.25 11.1667V12.8333H13.0833V7C13.0833 6.54167 13.4583 6.16667 13.9167 6.16667ZM6.41667 7C6.41667 6.54167 6.79167 6.16667 7.25 6.16667H10.5833C11.0417 6.16667 11.4167 6.54167 11.4167 7V12.8333H7.25V11.1667C7.25 10.4333 6.925 9.775 6.41667 9.31667V7ZM20.5833 15.3333C20.5833 15.7917 20.2083 16.1667 19.75 16.1667H4.75C4.29167 16.1667 3.91667 15.7917 3.91667 15.3333V11.1667C3.91667 10.7083 4.29167 10.3333 4.75 10.3333C5.20833 10.3333 5.58333 10.7083 5.58333 11.1667V14.5H18.9167V11.1667C18.9167 10.7083 19.2917 10.3333 19.75 10.3333C20.2083 10.3333 20.5833 10.7083 20.5833 11.1667V15.3333Z"/></svg>