<svg viewBox="0 0 25 24" xmlns="http://www.w3.org/2000/svg"><path d="M3.25 14L4.25 19M4.25 19L3.25 22M4.25 19H6.903C7.607 19 7.773 19.14 7.889 19.836L8.25 22M21.25 14L20.25 19M20.25 19L21.25 22M20.25 19H17.597C16.893 19 16.727 19.14 16.611 19.836L16.25 22M12.25 10V22M11.25 22H13.25M9.25 15H15.25M4.85 7.407C6.92 6.438 9.003 4.9 10.54 3.364C11.449 2.454 11.904 2 12.25 2C12.596 2 13.05 2.455 13.961 3.364C15.497 4.899 17.58 6.438 19.649 7.407C20.353 7.737 20.783 8.143 21.123 8.935C21.383 9.54 21.266 10 20.557 10H3.943C3.233 10 3.117 9.54 3.377 8.935C3.717 8.143 4.147 7.737 4.85 7.407Z" stroke-width="1.5" stroke-linecap="round" stroke-linejoin="round"/></svg>