<svg width="25" height="24" viewBox="0 0 25 24" fill="none" xmlns="http://www.w3.org/2000/svg">
<path d="M19.2969 4.91005C18.3799 3.98416 17.2879 3.25002 16.0844 2.75042C14.8809 2.25081 13.59 1.99574 12.2869 2.00005C6.82687 2.00005 2.37688 6.45005 2.37688 11.9101C2.37688 13.6601 2.83688 15.3601 3.69688 16.8601L2.29688 22.0001L7.54688 20.6201C8.99687 21.4101 10.6269 21.8301 12.2869 21.8301C17.7469 21.8301 22.1969 17.3801 22.1969 11.9201C22.1969 9.27005 21.1669 6.78005 19.2969 4.91005ZM12.2869 20.1501C10.8069 20.1501 9.35687 19.7501 8.08687 19.0001L7.78687 18.8201L4.66688 19.6401L5.49688 16.6001L5.29688 16.2901C4.47442 14.9771 4.0378 13.4593 4.03688 11.9101C4.03688 7.37005 7.73687 3.67005 12.2769 3.67005C14.4769 3.67005 16.5469 4.53005 18.0969 6.09005C18.8645 6.85392 19.4728 7.7626 19.8865 8.76338C20.3002 9.76417 20.5111 10.8371 20.5069 11.9201C20.5269 16.4601 16.8269 20.1501 12.2869 20.1501ZM16.8069 13.9901C16.5569 13.8701 15.3369 13.2701 15.1169 13.1801C14.8869 13.1001 14.7269 13.0601 14.5569 13.3001C14.3869 13.5501 13.9169 14.1101 13.7769 14.2701C13.6369 14.4401 13.4869 14.4601 13.2369 14.3301C12.9869 14.2101 12.1869 13.9401 11.2469 13.1001C10.5069 12.4401 10.0169 11.6301 9.86687 11.3801C9.72687 11.1301 9.84687 11.0001 9.97687 10.8701C10.0869 10.7601 10.2269 10.5801 10.3469 10.4401C10.4669 10.3001 10.5169 10.1901 10.5969 10.0301C10.6769 9.86005 10.6369 9.72005 10.5769 9.60005C10.5169 9.48005 10.0169 8.26005 9.81687 7.76005C9.61687 7.28005 9.40688 7.34005 9.25688 7.33005H8.77687C8.60687 7.33005 8.34687 7.39005 8.11687 7.64005C7.89687 7.89005 7.25688 8.49005 7.25688 9.71005C7.25688 10.9301 8.14688 12.1101 8.26688 12.2701C8.38688 12.4401 10.0169 14.9401 12.4969 16.0101C13.0869 16.2701 13.5469 16.4201 13.9069 16.5301C14.4969 16.7201 15.0369 16.6901 15.4669 16.6301C15.9469 16.5601 16.9369 16.0301 17.1369 15.4501C17.3469 14.8701 17.3469 14.3801 17.2769 14.2701C17.2069 14.1601 17.0569 14.1101 16.8069 13.9901Z" fill="#151515"/>
</svg>
