<svg width="25" height="24" viewBox="0 0 25 24" fill="none" xmlns="http://www.w3.org/2000/svg">
<g clip-path="url(#clip0_4254_2399)">
<path d="M12.25 21C11.55 21 10.9583 20.7583 10.475 20.275C9.99167 19.7917 9.75 19.2 9.75 18.5C9.75 17.8 9.99167 17.2083 10.475 16.725C10.9583 16.2417 11.55 16 12.25 16C12.95 16 13.5417 16.2417 14.025 16.725C14.5083 17.2083 14.75 17.8 14.75 18.5C14.75 19.2 14.5083 19.7917 14.025 20.275C13.5417 20.7583 12.95 21 12.25 21ZM6.6 15.35L4.5 13.2C5.48333 12.2167 6.63767 11.4377 7.963 10.863C9.28833 10.2883 10.7173 10.0007 12.25 10C13.7827 9.99933 15.212 10.291 16.538 10.875C17.864 11.459 19.018 12.2507 20 13.25L17.9 15.35C17.1667 14.6167 16.3167 14.0417 15.35 13.625C14.3833 13.2083 13.35 13 12.25 13C11.15 13 10.1167 13.2083 9.15 13.625C8.18333 14.0417 7.33333 14.6167 6.6 15.35ZM2.35 11.1L0.25 9C1.78333 7.43333 3.575 6.20833 5.625 5.325C7.675 4.44167 9.88333 4 12.25 4C14.6167 4 16.825 4.44167 18.875 5.325C20.925 6.20833 22.7167 7.43333 24.25 9L22.15 11.1C20.8667 9.81667 19.3793 8.81267 17.688 8.088C15.9967 7.36333 14.184 7.00067 12.25 7C10.316 6.99933 8.50367 7.362 6.813 8.088C5.12233 8.814 3.63467 9.818 2.35 11.1Z" fill="#151515"/>
</g>
<defs>
<clipPath id="clip0_4254_2399">
<rect width="24" height="24" fill="white" transform="translate(0.25)"/>
</clipPath>
</defs>
</svg>
