<svg viewBox="0 0 25 24" xmlns="http://www.w3.org/2000/svg"><path d="M3 15.625V20.375C3 20.6402 3.10536 20.8946 3.29289 21.0821C3.48043 21.2696 3.73478 21.375 4 21.375H20.5C20.7652 21.375 21.0196 21.2696 21.2071 21.0821C21.3946 20.8946 21.5 20.6402 21.5 20.375V10.125L12.5 2.625H12L3 10.125V13.125L12 17.895H12.5L18 14.935V11.125C17.9878 10.9965 17.9312 10.8763 17.8399 10.7851C17.7487 10.6938 17.6285 10.6372 17.5 10.625H7C6.87187 10.6381 6.75218 10.695 6.6611 10.7861C6.57003 10.8772 6.51313 10.9969 6.5 11.125C6.475 11.375 6.5 12.585 6.5 12.585" stroke-linecap="round" stroke-linejoin="round"/></svg>