<?xml version="1.0" standalone="no"?>
<!DOCTYPE svg PUBLIC "-//W3C//DTD SVG 20010904//EN"
 "http://www.w3.org/TR/2001/REC-SVG-20010904/DTD/svg10.dtd">
<svg version="1.0" xmlns="http://www.w3.org/2000/svg"
 width="482.000000pt" height="454.000000pt" viewBox="0 0 482.000000 454.000000"
 preserveAspectRatio="xMidYMid meet">

<g transform="translate(0.000000,454.000000) scale(0.100000,-0.100000)"
fill="#000000" stroke="none">
<path d="M1052 3491 c-64 -22 -141 -93 -174 -160 -19 -39 -22 -63 -23 -151 0
-94 3 -110 27 -155 39 -75 114 -140 184 -161 50 -14 68 -15 116 -5 72 15 132
46 170 90 l31 35 -23 18 c-29 23 -47 23 -59 -1 -17 -30 -109 -71 -160 -71
-121 1 -221 114 -221 249 0 116 83 233 174 246 86 13 165 -13 204 -67 17 -23
34 -23 62 0 l22 18 -26 31 c-36 42 -85 72 -149 89 -68 18 -91 17 -155 -5z"/>
<path d="M1738 3478 c-9 -18 -31 -69 -51 -113 -86 -197 -111 -254 -138 -313
-16 -35 -29 -65 -29 -67 0 -3 -11 -29 -25 -59 -14 -30 -25 -60 -25 -65 0 -6
16 -11 35 -11 39 0 33 -11 130 210 21 47 50 112 65 145 15 33 33 77 41 98 7
21 19 43 26 49 14 11 7 25 156 -312 l82 -185 38 -3 c20 -2 37 1 37 6 0 7 -103
246 -180 417 -10 22 -28 65 -41 95 -42 100 -63 135 -85 138 -16 2 -25 -6 -36
-30z"/>
<path d="M2385 3496 c-59 -18 -93 -44 -120 -91 -28 -47 -32 -93 -11 -133 26
-50 73 -81 196 -127 41 -15 93 -40 115 -55 35 -23 40 -31 39 -63 -2 -64 -79
-104 -181 -94 -60 6 -98 28 -119 68 -12 24 -21 29 -49 29 -39 0 -41 -6 -21
-53 32 -77 150 -136 245 -123 147 20 242 135 193 233 -26 51 -73 82 -202 133
-156 62 -191 114 -119 175 75 62 219 35 245 -47 4 -13 15 -18 40 -18 40 0 43
13 14 70 -23 46 -65 77 -127 96 -55 17 -85 17 -138 0z"/>
<path d="M3079 3493 c-24 -40 -277 -628 -273 -635 8 -13 61 -9 72 5 5 6 40 82
77 167 37 85 78 178 90 205 13 28 30 67 38 88 24 57 28 54 82 -76 9 -21 29
-67 45 -103 17 -35 30 -66 30 -69 0 -2 15 -36 34 -77 18 -40 36 -83 40 -95 11
-35 34 -53 67 -53 38 0 37 11 -6 104 -19 41 -54 121 -79 178 -158 366 -164
378 -187 378 -10 0 -24 -8 -30 -17z"/>
<path d="M2015 2699 c-3 -8 -4 -156 -3 -329 l3 -315 150 0 c127 0 156 3 188
19 51 25 103 79 135 140 25 47 27 60 27 166 -1 129 -13 164 -81 240 -63 69
-108 84 -271 88 -114 3 -144 1 -148 -9z m316 -92 c31 -16 54 -39 77 -77 30
-51 32 -59 32 -150 -1 -114 -22 -166 -89 -217 -42 -33 -44 -33 -152 -33 l-109
0 0 250 0 250 98 0 c84 0 106 -4 143 -23z"/>
<path d="M2685 2697 c-3 -7 -4 -154 -3 -327 l3 -315 230 0 230 0 3 33 c2 17 2
33 0 34 -2 1 -91 4 -198 7 l-195 6 0 100 0 100 140 5 140 5 3 32 c4 40 -3 42
-163 46 l-120 2 0 100 0 100 195 5 c194 5 195 5 198 28 7 50 -4 52 -240 52
-166 0 -220 -3 -223 -13z"/>
<path d="M3345 2688 c-3 -13 -4 -160 -3 -328 l3 -305 193 -3 193 -2 -3 37 -3
38 -152 3 -153 3 -2 287 -3 287 -32 3 c-27 3 -33 -1 -38 -20z"/>
<path d="M1084 1823 c-19 -43 -56 -125 -81 -183 -25 -58 -54 -123 -63 -145
-72 -161 -100 -228 -100 -240 0 -10 11 -15 35 -15 28 0 37 5 44 23 5 12 23 52
40 90 17 37 31 69 31 72 0 2 13 32 29 67 16 35 38 86 50 113 69 160 74 166 92
118 20 -54 164 -379 189 -428 20 -40 31 -51 54 -53 16 -2 32 0 36 5 7 7 -26
89 -106 261 -13 29 -24 55 -24 57 0 3 -16 39 -35 81 -19 41 -35 77 -35 80 0 2
-18 43 -40 89 -52 113 -67 114 -116 8z"/>
<path d="M1665 1887 c-3 -7 -4 -152 -3 -322 l3 -310 35 0 35 0 3 323 2 322
-35 0 c-20 0 -38 -6 -40 -13z"/>
<path d="M2015 1887 c-3 -7 -4 -152 -3 -322 l3 -310 35 0 35 0 3 143 3 142 97
0 c94 0 99 -1 123 -27 40 -45 57 -77 89 -170 29 -87 29 -88 64 -91 27 -2 36 1
36 12 0 25 -61 188 -88 238 l-26 47 41 38 c49 45 63 77 63 140 0 59 -29 107
-89 144 -45 29 -45 29 -213 29 -126 0 -170 -3 -173 -13z m341 -73 c38 -18 64
-58 64 -98 0 -33 -44 -83 -80 -91 -23 -5 -187 -9 -237 -6 -10 1 -13 29 -13
106 l0 105 116 0 c87 0 125 -4 150 -16z"/>
<path d="M2690 1575 l0 -325 233 2 232 3 3 33 c2 17 2 33 0 34 -2 1 -91 4
-198 7 l-195 6 -1 85 c-2 129 -14 119 144 122 l137 3 3 32 c4 41 -6 44 -156
40 -68 -1 -116 2 -120 8 -12 18 -10 190 2 197 6 4 95 8 199 8 l187 0 0 35 0
35 -235 0 -235 0 0 -325z"/>
<path d="M3363 1323 c-19 -7 -16 -70 3 -77 9 -3 89 -6 178 -6 170 0 186 4 186
45 0 41 -16 45 -190 44 -91 0 -171 -3 -177 -6z"/>
</g>
</svg>
